<?xml version="1.0" encoding="UTF-8"?>
<svg xmlns="http://www.w3.org/2000/svg" xmlns:xlink="http://www.w3.org/1999/xlink" width="150px" height="150px" viewBox="0 0 150 150" version="1.1">
<g id="surface1">
<path style=" stroke:none;fill-rule:nonzero;fill:rgb(0%,0%,0%);fill-opacity:1;" d="M 67.484375 20.058594 C 42.777344 22.351562 23.1875 40.367188 17.910156 65.625 C 16.710938 71.5625 16.710938 81.550781 17.910156 87.488281 C 20.347656 99.070312 24.988281 107.914062 33.183594 116.308594 C 41.777344 125.191406 51.574219 130.429688 63.527344 132.4375 C 68.882812 133.378906 78.4375 133.09375 83.753906 131.863281 C 94.710938 129.367188 103.90625 124.042969 111.820312 115.734375 C 116.21875 111.066406 118.9375 107.21875 121.65625 101.734375 C 131.371094 81.878906 128.769531 58.214844 114.980469 40.652344 C 103.785156 26.488281 85.234375 18.421875 67.484375 20.058594 Z M 80.355469 44.625 C 88.953125 46.753906 95.347656 52.277344 98.828125 60.589844 C 100.507812 64.601562 100.425781 64.847656 97.46875 65.421875 C 96.109375 65.664062 94.871094 65.746094 94.710938 65.585938 C 94.589844 65.421875 94.191406 64.4375 93.789062 63.375 C 90.550781 54.324219 81.636719 48.921875 71.160156 49.660156 C 62.046875 50.3125 56.410156 53.875 53.011719 61.121094 C 50.691406 65.992188 50.214844 68.816406 50.214844 76.761719 C 50.214844 87.324219 51.773438 92.359375 56.609375 97.351562 C 60.488281 101.324219 66.246094 103.535156 72.5625 103.535156 C 83.277344 103.535156 91.550781 97.3125 91.550781 89.246094 C 91.550781 87.324219 91.269531 86.011719 90.589844 84.496094 C 89.671875 82.492188 87.234375 79.996094 86.714844 80.566406 C 86.59375 80.730469 86.234375 81.753906 85.992188 82.902344 C 84.875 87.609375 81.757812 91.375 77.597656 92.972656 C 74.558594 94.160156 69.484375 93.914062 66.566406 92.480469 C 57.6875 88.140625 58.007812 76.472656 67.085938 72.832031 C 69.042969 72.011719 70.164062 71.886719 75.078125 71.886719 L 80.835938 71.847656 L 80.597656 70.621094 C 80.238281 68.898438 78.558594 66.445312 77.199219 65.746094 C 74.121094 64.109375 69.683594 64.640625 67.164062 67.015625 L 65.644531 68.367188 L 63.40625 67.058594 C 62.207031 66.320312 61.167969 65.503906 61.167969 65.257812 C 61.167969 64.273438 65.566406 60.671875 67.644531 59.894531 C 70.683594 58.828125 76.320312 58.910156 78.839844 60.097656 C 82.757812 61.898438 85.632812 66.035156 86.472656 71.152344 C 86.914062 73.730469 86.953125 73.773438 88.871094 74.796875 C 94.75 77.824219 98.1875 84.785156 97.148438 91.582031 C 95.46875 102.796875 84.792969 109.878906 70.640625 109.183594 C 57.890625 108.570312 48.8125 101.160156 45.535156 88.589844 C 44.296875 84.007812 44.015625 72.953125 44.976562 67.753906 C 46.976562 56.78125 52.613281 49.085938 60.96875 45.890625 C 66.804688 43.640625 74.28125 43.148438 80.355469 44.625 Z M 80.355469 44.625 "/>
<path style=" stroke:none;fill-rule:nonzero;fill:rgb(0%,0%,0%);fill-opacity:1;" d="M 71.082031 77.785156 C 67.523438 78.4375 65.765625 80.160156 65.84375 82.941406 C 65.886719 84.785156 66.765625 86.09375 68.484375 86.953125 C 71.640625 88.46875 75.601562 88.140625 77.878906 86.175781 C 79.636719 84.660156 81.835938 78.683594 80.875 78.070312 C 80.195312 77.660156 72.960938 77.414062 71.082031 77.785156 Z M 71.082031 77.785156 "/>
</g>
</svg>
