<?xml version="1.0" standalone="no"?>
<!DOCTYPE svg PUBLIC "-//W3C//DTD SVG 20010904//EN"
 "http://www.w3.org/TR/2001/REC-SVG-20010904/DTD/svg10.dtd">
<svg version="1.0" xmlns="http://www.w3.org/2000/svg"
 width="115.000000pt" height="113.000000pt" viewBox="0 0 115.000000 113.000000"
 preserveAspectRatio="xMidYMid meet">

<g transform="translate(0.000000,113.000000) scale(0.100000,-0.100000)"
fill="#000000" stroke="none">
<path d="M466 1118 c-68 -13 -181 -67 -242 -116 -66 -52 -147 -174 -175 -260
-45 -144 -33 -300 33 -434 40 -81 160 -202 243 -245 182 -95 378 -81 556 38
106 71 190 191 224 319 19 72 19 210 0 285 -27 106 -72 184 -150 261 -136 134
-306 187 -489 152z m216 -244 c63 -21 119 -72 148 -134 20 -44 22 -53 10 -61
-26 -16 -39 -10 -59 29 -41 79 -113 122 -203 121 -158 -1 -241 -114 -224 -304
13 -141 81 -216 202 -223 122 -8 204 46 204 135 0 29 -6 53 -17 65 -22 25 -30
23 -38 -11 -8 -38 -59 -88 -96 -96 -100 -22 -187 71 -145 154 22 42 64 61 135
61 55 0 59 2 54 20 -12 46 -78 64 -122 34 -19 -13 -27 -14 -49 -5 l-25 12 31
32 c29 29 38 32 91 32 71 0 102 -23 128 -96 10 -27 28 -54 44 -65 39 -26 69
-84 69 -133 0 -118 -101 -201 -244 -201 -120 0 -206 53 -252 155 -58 129 -33
324 54 419 65 70 199 96 304 60z"/>
<path d="M526 534 c-33 -33 -3 -84 51 -84 29 0 71 38 79 73 l6 27 -60 0 c-42
0 -65 -5 -76 -16z"/>
</g>
</svg>
